{"title":"Beauty.and.the.Beast.[La.Belle.et.la.Bete].2014.BRRip.x264.HORiZ","uid":10399166,"size":2172106222,"categoryP":"video","categoryS":"movies","magnet":"?xt=urn:btih:752a207ef88134d8293e4421ab4e86ac2ea340f2&amp;dn=Beauty.and.the.Beast.%5BLa.Belle.et.la.Bete%5D.2014.BRRip.x264.HORiZ&amp;tr=udp%3A%2F%2Ftracker.openbittorrent.com%3A80&amp;tr=udp%3A%2F%2Fopen.demonii.com%3A1337&amp;tr=udp%3A%2F%2Ftracker.coppersurfer.tk%3A6969&amp;tr=udp%3A%2F%2Fexodus.desync.com%3A6969","seeders":13,"leechers":1,"uploader":"lletaif","files":1,"time":1403326833,"description":"Title:\nBeauty and the Beast Aka La Belle et la Bete\n\n\n\nCountry:\nFrance, 2014\n\n\n\nNo Subtitle\n\n\n\nIMDB: &lt;a href=&quot;\nhttp://www.imdb.com/title/tt2316801/?ref_=fn_tt_tt_1&quot; rel=&quot;nofollow&quot; target=&quot;_NEW&quot;&gt;\nhttp://www.imdb.com/title/tt2316801/?ref_=fn_tt_tt_1&lt;/a&gt;\n\n\nSynopsis:\nAn unexpected romance blooms after the the youngest daughter of a merchant who has fallen on hard times offers herself to the mysterious beast to which her father has become indebted.\n\n\nTrivia:\nOfficial Selection Berlin Film Festival 2014\n\n\n\nMedia Info:\n\nGeneral\nUnique ID                                : 254589834980587019774465962314334547108 (0xBF8837FAECF834208A07E22BF9D92CA4)\nComplete name                            : Beauty.and.the.Beast.[La.Belle.et.la.Bete].2014.BRRip.x264.HORiZON-ArtSubs\nFormat                                   : Matroska\nFormat version                           : Version 2\nFile size                                : 2.02 GiB\nDuration                                 : 1h 53mn\nOverall bit rate                         : 2 561 Kbps\nEncoded date                             : UTC 2014-06-21 02:03:07\nWriting application                      : DVDFab 9.1.4.0\nWriting library                          : libebml v0.7.8 + libmatroska v0.8.1\n\nVideo\nID                                       : 1\nFormat                                   : AVC\nFormat/Info                              : Advanced Video Codec\nFormat profile                           : &lt;a class=&quot;__cf_email__&quot; href=&quot;/cdn-cgi/l/email-protection&quot; data-cfemail=&quot;85cdece2edc5c9b1abb4&quot;&gt;[email&amp;#160;protected]&lt;/a&gt;&lt;script cf-hash='f9e31' type=&quot;text/javascript&quot;&gt;\n/* &lt;![CDATA[ */!function(){try{var t=&quot;currentScript&quot;in document?document.currentScript:function(){for(var t=document.getElementsByTagName(&quot;script&quot;),e=t.length;e--;)if(t[e].getAttribute(&quot;cf-hash&quot;))return t[e]}();if(t&amp;&amp;t.previousSibling){var e,r,n,i,c=t.previousSibling,a=c.getAttribute(&quot;data-cfemail&quot;);if(a){for(e=&quot;&quot;,r=parseInt(a.substr(0,2),16),n=2;a.length-n;n+=2)i=parseInt(a.substr(n,2),16)^r,e+=String.fromCharCode(i);e=document.createTextNode(e),c.parentNode.replaceChild(e,c)}}}catch(u){}}();/* ]]&gt; */&lt;/script&gt;\nFormat settings, CABAC                   : Yes\nFormat settings, ReFrames                : 2 frames\nCodec ID                                 : V_MPEG4/ISO/AVC\nDuration                                 : 1h 53mn\nBit rate                                 : 2 062 Kbps\nWidth                                    : 1 280 pixels\nHeight                                   : 536 pixels\nDisplay aspect ratio                     : 2.40:1\nFrame rate mode                          : Constant\nFrame rate                               : 24.000 fps\nColor space                              : YUV\nChroma subsampling                       : 4:2:0\nBit depth                                : 8 bits\nScan type                                : Progressive\nBits/(Pixel*Frame)                       : 0.125\nStream size                              : 1.63 GiB (81%)\nWriting library                          : x264 core\nDefault                                  : Yes\nForced                                   : No\nColor primaries                          : BT.709\nTransfer characteristics                 : BT.709\nMatrix coefficients                      : BT.709\n\nAudio\nID                                       : 2\nFormat                                   : AC-3\nFormat/Info                              : Audio Coding 3\nMode extension                           : CM (complete main)\nFormat settings, Endianness              : Big\nCodec ID                                 : A_AC3\nDuration                                 : 1h 53mn\nBit rate mode                            : Constant\nBit rate                                 : 448 Kbps\nChannel(s)                               : 6 channels\nChannel positions                        : Front: L C R, Side: L R, LFE\nSampling rate                            : 48.0 KHz\nBit depth                                : 16 bits\nCompression mode                         : Lossy\nStream size                              : 362 MiB (17%)\nLanguage                                 : French\nDefault                                  : Yes\nForced                                   : No\n\n","torrent":{"xt":"urn:btih:752a207ef88134d8293e4421ab4e86ac2ea340f2","amp;dn":"Beauty.and.the.Beast.%5BLa.Belle.et.la.Bete%5D.2014.BRRip.x264.HORiZ","amp;tr":["udp%3A%2F%2Ftracker.openbittorrent.com%3A80","udp%3A%2F%2Fopen.demonii.com%3A1337","udp%3A%2F%2Ftracker.coppersurfer.tk%3A6969","udp%3A%2F%2Fexodus.desync.com%3A6969"],"infoHash":"752a207ef88134d8293e4421ab4e86ac2ea340f2","infoHashBuffer":{"type":"Buffer","data":[117,42,32,126,248,129,52,216,41,62,68,33,171,78,134,172,46,163,64,242]},"announce":[],"urlList":[]}}